<svg width="32" height="32" viewBox="0 0 32 32" fill="none" xmlns="http://www.w3.org/2000/svg">
<path d="M0 0.979492V9.48918H5.00456V7.26855C5.00456 6.45674 5.665 5.7963 6.47687 5.7963H12.9564V24.1423C12.9564 25.3002 12.0144 26.2423 10.8564 26.2423H8.79444V31.0207H23.2496V26.2423H21.1876C20.0298 26.2423 19.0876 25.3002 19.0876 24.1423V5.79624H25.5231C26.3349 5.79624 26.9954 6.45668 26.9954 7.26849V9.48912H32V0.979492H0ZM30.125 7.61412H28.8704V7.26849C28.8704 5.4228 27.3689 3.92124 25.5231 3.92124H17.2126V24.1422C17.2126 26.3341 18.9958 28.1172 21.1876 28.1172H21.3746V29.1456H10.6694V28.1172H10.8564C13.0483 28.1172 14.8314 26.3341 14.8314 24.1422V3.92124H6.47687C4.63119 3.92124 3.12956 5.4228 3.12956 7.26849V7.61412H1.875V2.85449H30.125V7.61412Z" fill="white"/>
</svg>
