<svg width="32" height="32" viewBox="0 0 32 32" fill="none" xmlns="http://www.w3.org/2000/svg">
<path d="M16.0001 2.6665C8.64008 2.6665 2.66675 8.63984 2.66675 15.9998C2.66675 23.3598 8.64008 29.3332 16.0001 29.3332C23.3601 29.3332 29.3334 23.3598 29.3334 15.9998C29.3334 8.63984 23.3601 2.6665 16.0001 2.6665ZM16.0001 6.6665C18.2134 6.6665 20.0001 8.45317 20.0001 10.6665C20.0001 12.8798 18.2134 14.6665 16.0001 14.6665C13.7867 14.6665 12.0001 12.8798 12.0001 10.6665C12.0001 8.45317 13.7867 6.6665 16.0001 6.6665ZM16.0001 25.5998C12.6667 25.5998 9.72008 23.8932 8.00008 21.3065C8.04008 18.6532 13.3334 17.1998 16.0001 17.1998C18.6534 17.1998 23.9601 18.6532 24.0001 21.3065C22.2801 23.8932 19.3334 25.5998 16.0001 25.5998Z" fill="#F7F7F7"/>
</svg>
