<svg width="32" height="32" viewBox="0 0 32 32" fill="none" xmlns="http://www.w3.org/2000/svg">
<path d="M27.9999 4H3.99992C2.51992 4 1.33325 5.18667 1.33325 6.66667V22.6667C1.33325 24.1333 2.51992 25.3333 3.99992 25.3333H10.6666V28H21.3333V25.3333H23.9999V22.6667H3.99992V6.66667H27.9999V17.3333H30.6666V6.66667C30.6666 5.18667 29.4666 4 27.9999 4ZM17.3333 13.3333V9.33333H14.6666V13.3333H10.6666V16H14.6666V20H17.3333V16H21.3333V13.3333H17.3333ZM31.9999 24L25.9999 30L23.9999 28L27.9999 24L23.9999 20L25.9999 18L31.9999 24Z" fill="#F7F7F7"/>
</svg>
