<svg width="32" height="32" viewBox="0 0 32 32" fill="none" xmlns="http://www.w3.org/2000/svg">
<path d="M26.6667 17.3333H5.33333C4.6 17.3333 4 17.9333 4 18.6667V26.6667C4 27.4 4.6 28 5.33333 28H26.6667C27.4 28 28 27.4 28 26.6667V18.6667C28 17.9333 27.4 17.3333 26.6667 17.3333ZM9.33333 25.3333C7.86667 25.3333 6.66667 24.1333 6.66667 22.6667C6.66667 21.2 7.86667 20 9.33333 20C10.8 20 12 21.2 12 22.6667C12 24.1333 10.8 25.3333 9.33333 25.3333ZM26.6667 4H5.33333C4.6 4 4 4.6 4 5.33333V13.3333C4 14.0667 4.6 14.6667 5.33333 14.6667H26.6667C27.4 14.6667 28 14.0667 28 13.3333V5.33333C28 4.6 27.4 4 26.6667 4ZM9.33333 12C7.86667 12 6.66667 10.8 6.66667 9.33333C6.66667 7.86667 7.86667 6.66667 9.33333 6.66667C10.8 6.66667 12 7.86667 12 9.33333C12 10.8 10.8 12 9.33333 12Z" fill="#F7F7F7"/>
</svg>
