<svg width="14" height="14" viewBox="0 0 14 14" fill="none" xmlns="http://www.w3.org/2000/svg">
<g opacity="0.8">
<path d="M6.76667 10.0333H5.13334V11.6667H6.76667V10.0333Z" fill="#404040"/>
<path d="M6.76667 5.83333H5.13334V7.46667H6.76667V5.83333Z" fill="#404040"/>
<path d="M6.76667 7.93333H5.13334V9.56667H6.76667V7.93333Z" fill="#404040"/>
<path d="M4.66668 7.93333H3.03334V9.56667H4.66668V7.93333Z" fill="#404040"/>
<path d="M4.66668 5.83333H3.03334V7.46667H4.66668V5.83333Z" fill="#404040"/>
<path d="M4.66668 10.0333H3.03334V11.6667H4.66668V10.0333Z" fill="#404040"/>
<path d="M10.9667 5.83333H9.33334V7.46667H10.9667V5.83333Z" fill="#404040"/>
<path d="M13.3 0.933333H11.6667V0.233333C11.6667 0.1043 11.5624 0 11.4333 0H9.80001C9.67097 0 9.56667 0.1043 9.56667 0.233333V0.933333H4.43334V0.233333C4.43334 0.1043 4.32904 0 4.20001 0H2.56667C2.43764 0 2.33334 0.1043 2.33334 0.233333V0.933333H0.700008C0.570975 0.933333 0.466675 1.03763 0.466675 1.16667V13.7667C0.466675 13.8957 0.570975 14 0.700008 14H13.3C13.429 14 13.5333 13.8957 13.5333 13.7667V1.16667C13.5333 1.03763 13.429 0.933333 13.3 0.933333ZM11.4333 12.1333H2.56667V5.36667H11.4333V12.1333ZM13.0667 3.5H0.933341V1.4H2.33334V2.1C2.33334 2.22903 2.43764 2.33333 2.56667 2.33333H4.20001C4.32904 2.33333 4.43334 2.22903 4.43334 2.1V1.4H9.56667V2.1C9.56667 2.22903 9.67097 2.33333 9.80001 2.33333H11.4333C11.5624 2.33333 11.6667 2.22903 11.6667 2.1V1.4H13.0667V3.5Z" fill="#404040"/>
<path d="M10.9667 7.93333H9.33334V9.56667H10.9667V7.93333Z" fill="#404040"/>
<path d="M10.9667 10.0333H9.33334V11.6667H10.9667V10.0333Z" fill="#404040"/>
<path d="M8.86667 10.0333H7.23334V11.6667H8.86667V10.0333Z" fill="#404040"/>
<path d="M8.86667 7.93333H7.23334V9.56667H8.86667V7.93333Z" fill="#404040"/>
<path d="M8.86667 5.83333H7.23334V7.46667H8.86667V5.83333Z" fill="#404040"/>
</g>
</svg>
