<svg width="32" height="32" viewBox="0 0 32 32" fill="none" xmlns="http://www.w3.org/2000/svg">
<g clip-path="url(#clip0)">
<path d="M26.6181 17.5061L26.6258 17.51L26.6338 17.5132C26.7338 17.5533 26.7952 17.6038 26.8326 17.6579C26.8697 17.7116 26.8937 17.7838 26.8937 17.8856V24.0049C26.8937 25.4779 26.3725 26.7323 25.3257 27.779L25.3257 27.7791C24.279 28.826 23.0244 29.3468 21.5513 29.3468H5.54184C4.0686 29.3468 2.81406 28.826 1.76739 27.7791L1.76737 27.7791C0.720752 26.7324 0.2 25.4779 0.2 24.0049V7.99526C0.2 6.52197 0.720746 5.26762 1.7673 4.2208C2.81398 3.17412 4.06853 2.65337 5.54177 2.65337H21.5509C22.3316 2.65337 23.0535 2.80857 23.7179 3.1159C23.8526 3.17876 23.9254 3.27299 23.9519 3.41304C23.9792 3.56724 23.9409 3.68691 23.8343 3.79343L23.8343 3.79346L22.8914 4.73634L22.8914 4.73638C22.7973 4.83055 22.6993 4.86998 22.5901 4.86998C22.5903 4.86998 22.5903 4.86998 22.59 4.86995C22.5885 4.86983 22.5799 4.86912 22.5619 4.8651C22.5416 4.86055 22.5146 4.85301 22.4801 4.84161L22.4802 4.84122L22.4679 4.83798C22.1577 4.75698 21.8521 4.71598 21.5515 4.71598H5.54177C4.64155 4.71598 3.86594 5.03873 3.22585 5.67889C2.58564 6.31917 2.26295 7.0947 2.26295 7.99479V24.004C2.26295 24.9044 2.58565 25.6795 3.22584 26.3199L3.22586 26.3199C3.86594 26.96 4.64154 27.2828 5.54177 27.2828H21.5513C22.4515 27.2828 23.2272 26.96 23.8673 26.3199C24.5079 25.6794 24.83 24.9042 24.83 24.004V19.1169C24.83 19.0018 24.8675 18.9119 24.9446 18.8345L26.1759 17.6034L26.1761 17.6033C26.2704 17.5088 26.3679 17.4694 26.4768 17.4694C26.5198 17.4694 26.5661 17.4799 26.6181 17.5061Z" fill="url(#paint0_linear)" stroke="white" stroke-width="0.4"/>
<path d="M31.5384 6.28245L29.4215 4.16559C29.1136 3.85779 28.7478 3.70386 28.3243 3.70386C27.9014 3.70386 27.5353 3.85779 27.2277 4.16559L14.7778 16.6154L9.71736 11.5547C9.40942 11.2467 9.04373 11.093 8.62054 11.093C8.19729 11.093 7.83173 11.2467 7.52373 11.5547L5.40713 13.6713C5.09926 13.9791 4.94519 14.3448 4.94519 14.7683C4.94519 15.1915 5.09926 15.5571 5.40713 15.8651L13.6812 24.1392C13.9892 24.4473 14.3549 24.6009 14.778 24.6009C15.2012 24.6009 15.5669 24.4473 15.8749 24.1392L31.5382 8.47601C31.8458 8.16821 32.0001 7.80245 32.0001 7.3792C32.0001 6.95595 31.8462 6.59025 31.5384 6.28245Z" fill="url(#paint1_linear)"/>
</g>
<defs>
<linearGradient id="paint0_linear" x1="13.5469" y1="2.45337" x2="13.5469" y2="29.5468" gradientUnits="userSpaceOnUse">
<stop stop-color="#FFAAC4"/>
<stop offset="0.604167" stop-color="#FA709A"/>
<stop offset="1" stop-color="#FFEC84"/>
</linearGradient>
<linearGradient id="paint1_linear" x1="18.4726" y1="3.70386" x2="18.4726" y2="24.6009" gradientUnits="userSpaceOnUse">
<stop stop-color="#FFAAC4"/>
<stop offset="0.604167" stop-color="#FA709A"/>
<stop offset="1" stop-color="#FFEC84"/>
</linearGradient>
<clipPath id="clip0">
<rect width="32" height="32" fill="white"/>
</clipPath>
</defs>
</svg>
