<svg width="35" height="35" viewBox="0 0 35 35" fill="none" xmlns="http://www.w3.org/2000/svg">
<path d="M21.3166 16.7207L20.7331 17.1716L21.4292 17.4149C27.4466 19.5182 32.0023 25.2944 32.0023 32.334C32.0023 32.8682 31.5693 33.3012 31.0352 33.3012H1.36719C0.833004 33.3012 0.4 32.8682 0.4 32.334C0.4 25.2961 4.95229 19.5194 10.9732 17.4149L11.6693 17.1716L11.0857 16.7207C9.09796 15.1851 7.81699 12.7807 7.81699 10.083C7.81699 5.46032 11.5785 1.69883 16.2012 1.69883C20.8239 1.69883 24.5854 5.46032 24.5854 10.083C24.5854 12.7807 23.3044 15.1851 21.3166 16.7207ZM2.40532 30.9265L2.36073 31.3668H2.80328H29.5991H30.0416L29.997 30.9265C29.2894 23.9384 23.373 18.4672 16.2012 18.4672C9.02936 18.4672 3.11299 23.9384 2.40532 30.9265ZM32.4023 11.0502H32.0023V11.4502V12.6807C32.0023 13.2148 31.5693 13.6479 31.0352 13.6479C30.501 13.6479 30.068 13.2148 30.068 12.6807V11.4502V11.0502H29.668H28.4375C27.9033 11.0502 27.4703 10.6172 27.4703 10.083C27.4703 9.54882 27.9033 9.11582 28.4375 9.11582H29.668H30.068V8.71582V7.48535C30.068 6.95117 30.501 6.51816 31.0352 6.51816C31.5693 6.51816 32.0023 6.95117 32.0023 7.48535V8.71582V9.11582H32.4023H33.6328C34.167 9.11582 34.6 9.54882 34.6 10.083C34.6 10.6172 34.167 11.0502 33.6328 11.0502H32.4023ZM16.2012 3.6332C12.6444 3.6332 9.75137 6.52622 9.75137 10.083C9.75137 13.6398 12.6444 16.5328 16.2012 16.5328C19.758 16.5328 22.651 13.6398 22.651 10.083C22.651 6.52622 19.758 3.6332 16.2012 3.6332Z" fill="url(#paint0_linear)" stroke="white" stroke-width="0.8"/>
<defs>
<linearGradient id="paint0_linear" x1="17.5" y1="1.29883" x2="17.5" y2="33.7012" gradientUnits="userSpaceOnUse">
<stop stop-color="#FA709A"/>
<stop offset="1" stop-color="#FEE140"/>
</linearGradient>
</defs>
</svg>
