<svg width="30" height="30" viewBox="0 0 30 30" fill="none" xmlns="http://www.w3.org/2000/svg">
<path d="M26.0423 17.1755L24.6774 16.2654V0H6.29032V2.90323H0V30H18.3871V27.0968H24.6774V23.0259C24.7079 23.0186 24.7393 23.0162 24.7698 23.0089L27.0207 22.4464C27.5202 22.3214 28.034 22.2581 28.5484 22.2581H30V21.2903H28.5484C27.9551 21.2903 27.3619 21.3633 26.7861 21.5072L24.5352 22.0698C23.3782 22.3587 22.1468 22.3117 21.0165 21.9349L20.2011 21.6629C19.4588 21.4155 18.6857 21.2903 17.9032 21.2903H13.6809C13.6809 20.4901 14.3323 19.8387 15.1325 19.8387H20.4551C21.2556 19.8387 21.9067 19.1873 21.9067 18.3871C21.9067 17.6448 21.3444 17.038 20.625 16.9525L21.0222 15.4839H21.3213C21.6088 15.4839 21.8869 15.568 22.1265 15.7277L25.5058 17.9807C25.9051 18.2463 26.3691 18.3871 26.848 18.3871H30V17.4194H26.848C26.5607 17.4194 26.2819 17.3352 26.0423 17.1755ZM20.7096 22.8527C21.4519 23.1006 22.2252 23.2258 23.0075 23.2258C23.2423 23.2258 23.4765 23.2055 23.7097 23.1828V26.129H18.3871V24.5463C18.557 24.3504 18.6886 24.1187 18.7592 23.8564L19.1554 22.3887C19.4047 22.4395 19.6518 22.5 19.8945 22.5813L20.7096 22.8527ZM18.1858 22.2692L17.8253 23.6036C17.7315 23.9511 17.4146 24.1935 17.055 24.1935H16.8982C16.4585 24.1935 16.1008 23.8361 16.1008 23.3962C16.1008 23.3255 16.11 23.2558 16.1284 23.188L16.3796 22.2581H17.9032C17.9975 22.2581 18.0915 22.2654 18.1858 22.2692ZM15.392 15.9087C15.6625 15.6386 16.0365 15.4839 16.4183 15.4839H17.2079L16.8131 16.9442C16.2009 16.9664 15.627 17.2084 15.1916 17.6438L12.6721 20.1633C12.571 20.2645 12.4311 20.3226 12.2884 20.3226C11.9888 20.3226 11.7454 20.0792 11.7454 19.7801C11.7454 19.635 11.8022 19.499 11.9047 19.3964L15.392 15.9087ZM22.363 6.81247L21.7704 9.00477L20.1107 8.45168L20.6661 6.39641C20.7604 6.04886 21.077 5.80645 21.4363 5.80645H21.5932C22.0331 5.80645 22.3906 6.16392 22.3906 6.60385C22.3906 6.67449 22.3814 6.74419 22.363 6.81247ZM19.8581 9.38752L21.5178 9.94062L21.2506 10.9282L19.5909 10.3751L19.8581 9.38752ZM19.3378 11.311L20.9976 11.8641L19.1042 18.871H17.2951L19.3378 11.311ZM15.8758 18.328C16.0587 18.1452 16.2914 18.0204 16.5397 17.9554L16.2924 18.871H15.3334L15.8758 18.328ZM20.4551 17.9032C20.7219 17.9032 20.939 18.1206 20.939 18.3871C20.939 18.6536 20.7219 18.871 20.4551 18.871H20.1064L20.3682 17.9032H20.4551ZM21.3208 14.5161H21.2835L23.2974 7.06504C23.338 6.91501 23.3584 6.76025 23.3584 6.60385C23.3584 5.63043 22.5664 4.83871 21.5932 4.83871H21.4363C20.6406 4.83871 19.9398 5.37527 19.7322 6.1436L18.3871 11.1208V2.90323H8.22581V3.87097H17.4194V14.5161H16.4183C15.8917 14.5161 15.3957 14.6907 14.9811 15H10.1613V15.9677H13.9644L12.9967 16.9355H10.1613V17.9032H12.0294L11.2209 18.7117C10.9355 18.9967 10.7782 19.3761 10.7782 19.7801C10.7782 20.6129 11.4556 21.2903 12.2889 21.2903C12.4379 21.2903 12.5816 21.2617 12.721 21.2202C12.7205 21.2438 12.7137 21.2662 12.7137 21.2903C12.7137 21.824 13.1477 22.2581 13.6814 22.2581H15.3773L15.1944 22.935C15.1538 23.085 15.1335 23.2397 15.1335 23.3962C15.1335 24.0504 15.4954 24.616 16.0254 24.9208L15.8735 25.5275L16.8122 25.7623L16.9622 25.1613H17.055C17.1798 25.1613 17.3007 25.1438 17.4194 25.1188V29.0323H0.967742V3.87097H7.25806V0.967742H23.7097V15.6204L22.663 14.9225C22.264 14.6569 21.7999 14.5161 21.3208 14.5161ZM1.93548 9.67742H14.5161V4.83871H1.93548V9.67742ZM2.90323 5.80645H13.5484V8.70968H2.90323V5.80645ZM3.87097 6.77419H4.83871V7.74194H3.87097V6.77419ZM5.80645 6.77419H6.77419V7.74194H5.80645V6.77419ZM7.74194 6.77419H8.70968V7.74194H7.74194V6.77419ZM9.67742 6.77419H10.6452V7.74194H9.67742V6.77419ZM11.6129 6.77419H12.5806V7.74194H11.6129V6.77419ZM7.74194 18.3871H1.93548V12.5806H5.80645V13.5484H2.90323V17.4194H6.77419V15.4839H7.74194V18.3871ZM10.0195 11.4711L4.83871 16.652L3.52886 15.3421L4.21308 14.6579L4.83871 15.2835L9.33531 10.7869L10.0195 11.4711ZM6.77419 23.7097H7.74194V26.6129H1.93548V20.8065H5.80645V21.7742H2.90323V25.6452H6.77419V23.7097ZM4.83871 23.5093L9.33531 19.0127L10.0195 19.697L4.83871 24.8778L3.52886 23.5679L4.21308 22.8837L4.83871 23.5093ZM16.4516 27.5806H15.4839V26.6129H16.4516V27.5806ZM9.19355 26.6129H14.5161V27.5806H9.19355V26.6129ZM10.1613 13.0645H16.4516V14.0323H10.1613V13.0645Z" fill="url(#paint0_linear)"/>
<defs>
<linearGradient id="paint0_linear" x1="30.2727" y1="30" x2="2.81287" y2="-2.38508" gradientUnits="userSpaceOnUse">
<stop stop-color="#FEE140"/>
<stop offset="1" stop-color="#FA709A"/>
</linearGradient>
</defs>
</svg>
