<svg width="40" height="40" viewBox="0 0 40 40" fill="none" xmlns="http://www.w3.org/2000/svg">
<path d="M33.9212 7.85927L11.6946 5.31771C10.8465 5.22089 9.99454 5.4641 9.32537 5.9941C8.65619 6.5241 8.2243 7.29768 8.1243 8.14544L7.73758 11.5624H6.44453C4.66625 11.5624 3.20312 13.0404 3.20312 14.8189V31.478C3.20312 33.2565 4.66625 34.6874 6.44453 34.6874H28.8062C29.2287 34.6887 29.6474 34.6067 30.0382 34.446C30.4291 34.2854 30.7844 34.0493 31.084 33.7512C31.3835 33.4531 31.6213 33.099 31.7839 32.7089C31.9464 32.3189 32.0305 31.9006 32.0312 31.478V30.8161C32.6287 30.7561 33.1956 30.5229 33.6624 30.1453C33.9986 29.8822 34.2789 29.5546 34.4868 29.1817C34.6947 28.8089 34.8262 28.3983 34.8734 27.974L36.7591 11.43C36.8075 11.0091 36.7724 10.5829 36.656 10.1757C36.5395 9.76839 36.3438 9.38808 36.0802 9.05649C35.8167 8.72489 35.4903 8.44851 35.1198 8.24315C34.7493 8.03779 34.342 7.90747 33.9211 7.85966L33.9212 7.85927ZM30.4688 31.478C30.4682 31.6955 30.4247 31.9107 30.3408 32.1112C30.2568 32.3118 30.1341 32.4939 29.9796 32.6469C29.8251 32.7999 29.642 32.9209 29.4406 33.003C29.2392 33.085 29.0236 33.1264 28.8062 33.1249H6.44453C6.00367 33.1286 5.57934 32.9573 5.26461 32.6486C4.94988 32.3398 4.77043 31.9189 4.76562 31.478V28.454L11.1661 23.7954C11.5473 23.5214 12.0098 23.3839 12.4788 23.405C12.9478 23.4262 13.396 23.6048 13.751 23.912L18.2299 27.8226C18.8041 28.3245 19.5219 28.6328 20.2813 28.7036C21.0406 28.7744 21.803 28.6042 22.4602 28.2171L30.4688 23.5155V31.478ZM30.4688 21.703L21.6688 26.8701C21.2946 27.0906 20.8603 27.1876 20.4278 27.1473C19.9953 27.107 19.5865 26.9314 19.2595 26.6454L14.7829 22.7354C14.163 22.1889 13.3749 21.871 12.5494 21.8342C11.7238 21.7975 10.9106 22.0442 10.2446 22.5334L4.76562 26.5206V14.8189C4.76859 14.3731 4.94596 13.9462 5.25975 13.6296C5.57354 13.313 5.99882 13.1318 6.44453 13.1249H28.8062C29.723 13.1249 30.4688 13.9021 30.4688 14.8189V21.703ZM35.2069 11.2511L33.321 27.7968C33.2967 28.0158 33.2289 28.2278 33.1215 28.4202C33.0142 28.6127 32.8695 28.7818 32.696 28.9176C32.5003 29.0703 32.2733 29.1779 32.0312 29.2326V14.8189C32.0312 13.0404 30.5845 11.5624 28.8062 11.5624H9.31L9.67719 8.32021C9.70222 8.10384 9.7697 7.89454 9.87576 7.70429C9.98182 7.51405 10.1244 7.3466 10.2953 7.21154C10.4661 7.07648 10.662 6.97646 10.8716 6.91722C11.0812 6.85798 11.3004 6.84068 11.5167 6.8663L33.7454 9.41013C33.9623 9.43502 34.1721 9.50239 34.363 9.6084C34.5538 9.7144 34.7219 9.85696 34.8576 10.0279C34.9934 10.1989 35.0941 10.3949 35.1541 10.6049C35.214 10.8148 35.2321 11.0344 35.2071 11.2513L35.2069 11.2511Z" fill="url(#paint0_linear)"/>
<path d="M20.2933 15.667C19.6232 15.667 18.9682 15.8657 18.411 16.238C17.8538 16.6103 17.4196 17.1395 17.1631 17.7586C16.9067 18.3777 16.8396 19.0589 16.9704 19.7161C17.1012 20.3734 17.4239 20.9771 17.8977 21.4509C18.3716 21.9247 18.9753 22.2473 19.6325 22.378C20.2898 22.5087 20.971 22.4416 21.5901 22.1851C22.2092 21.9286 22.7383 21.4943 23.1105 20.9371C23.4828 20.3799 23.6814 19.7248 23.6814 19.0547C23.6803 18.1565 23.323 17.2954 22.6878 16.6603C22.0527 16.0252 21.1915 15.668 20.2933 15.667ZM20.2933 20.8806C19.9323 20.8806 19.5793 20.7735 19.2791 20.573C18.9789 20.3724 18.745 20.0873 18.6068 19.7537C18.4686 19.4202 18.4324 19.0531 18.5028 18.699C18.5732 18.3449 18.7471 18.0196 19.0024 17.7643C19.2576 17.509 19.5829 17.3351 19.937 17.2646C20.2911 17.1941 20.6581 17.2302 20.9917 17.3684C21.3253 17.5065 21.6104 17.7404 21.8111 18.0406C22.0117 18.3408 22.1188 18.6937 22.1189 19.0547C22.1184 19.5388 21.926 20.0029 21.5837 20.3452C21.2415 20.6875 20.7774 20.8801 20.2933 20.8806Z" fill="url(#paint1_linear)"/>
<defs>
<linearGradient id="paint0_linear" x1="19.992" y1="1.40615" x2="19.992" y2="36.4061" gradientUnits="userSpaceOnUse">
<stop stop-color="#FEE140"/>
<stop offset="0.0001" stop-color="#FA709A"/>
<stop offset="1" stop-color="#FEE140"/>
</linearGradient>
<linearGradient id="paint1_linear" x1="1777.03" y1="137.637" x2="1777.03" y2="3173.33" gradientUnits="userSpaceOnUse">
<stop stop-color="#FB977B"/>
<stop offset="1" stop-color="#FEE140"/>
</linearGradient>
</defs>
</svg>
