<svg width="30" height="30" viewBox="0 0 30 30" fill="none" xmlns="http://www.w3.org/2000/svg">
<g clip-path="url(#clip0)">
<path d="M26.1804 28.9433L22.2254 20.5773C22.1464 20.4103 22.0097 20.2824 21.8457 20.2126L19.8781 19.3367L23.2874 13.6228C23.2955 13.6091 23.3032 13.5952 23.3105 13.581C23.9883 12.258 24.332 10.8284 24.332 9.33206C24.332 6.81493 23.345 4.45513 21.5526 2.68741C19.7606 0.92011 17.3865 -0.0344407 14.8679 0.000949931C12.4217 0.0348757 10.1185 1.01743 8.38241 2.76775C6.64651 4.51794 5.68253 6.82906 5.668 9.27552C5.65909 10.7705 6.01235 12.2593 6.68935 13.5809C6.69661 13.5951 6.70429 13.609 6.71243 13.6227L10.1217 19.3366L8.14271 20.2173C7.98081 20.2893 7.85015 20.417 7.77444 20.5772L3.81954 28.9433C3.68718 29.2231 3.74302 29.5558 3.95946 29.7771C4.17585 29.9984 4.50702 30.0618 4.78985 29.936L9.74442 27.7301L14.699 29.936C14.8907 30.0212 15.1095 30.0212 15.3012 29.936L20.2557 27.7301L25.2103 29.936C25.3071 29.979 25.4096 30 25.5112 30C25.7064 30 25.8984 29.9228 26.0407 29.7772C26.257 29.5558 26.3127 29.2232 26.1804 28.9433ZM7.99646 12.8851C7.42634 11.7641 7.14105 10.5528 7.1486 9.28437C7.17368 5.04048 10.6458 1.54003 14.8885 1.48126C17.0076 1.45279 19.0055 2.25464 20.5131 3.74158C22.0212 5.22886 22.8516 7.21425 22.8516 9.33212C22.8516 10.5836 22.5663 11.7788 22.0036 12.8851L15.6357 23.5579C15.4413 23.8836 15.1264 23.9188 15 23.9188C14.8736 23.9188 14.5587 23.8836 14.3644 23.5579L7.99646 12.8851ZM20.5567 26.2436C20.365 26.1584 20.1462 26.1584 19.9545 26.2436L14.9999 28.4494L10.0454 26.2436C9.8537 26.1584 9.63485 26.1584 9.44319 26.2436L6.01089 27.7718L8.99554 21.4583L10.8857 20.6172L13.0928 24.3164C13.4973 24.9944 14.2103 25.3992 14.9998 25.3992C15.7894 25.3992 16.5023 24.9944 16.9069 24.3164L19.114 20.6172L21.0043 21.4587L23.9887 27.7718L20.5567 26.2436Z" fill="url(#paint0_linear)"/>
<path d="M15.0003 5.95361C13.1374 5.95361 11.6218 7.46914 11.6218 9.33201C11.6218 11.1949 13.1374 12.7104 15.0003 12.7104C16.8632 12.7105 18.3787 11.1949 18.3787 9.33201C18.3787 7.46914 16.8632 5.95361 15.0003 5.95361ZM15.0003 11.23C13.9537 11.23 13.1023 10.3787 13.1023 9.33201C13.1023 8.28547 13.9537 7.43404 15.0003 7.43404C16.0468 7.43404 16.8983 8.28547 16.8983 9.33201C16.8983 10.3786 16.0468 11.23 15.0003 11.23Z" fill="url(#paint1_linear)"/>
</g>
<defs>
<linearGradient id="paint0_linear" x1="15" y1="0" x2="15" y2="30" gradientUnits="userSpaceOnUse">
<stop stop-color="#FA709A"/>
<stop offset="1" stop-color="#FEE140"/>
</linearGradient>
<linearGradient id="paint1_linear" x1="15.0003" y1="5.95361" x2="15.0003" y2="12.7104" gradientUnits="userSpaceOnUse">
<stop stop-color="#FA709A"/>
<stop offset="1" stop-color="#FEE140"/>
</linearGradient>
<clipPath id="clip0">
<rect width="30" height="30" fill="white"/>
</clipPath>
</defs>
</svg>
