<svg width="30" height="30" viewBox="0 0 30 30" fill="none" xmlns="http://www.w3.org/2000/svg">
<path d="M28.1375 15.9807V27.3889H6.25245V15.9807H28.1375ZM30.0001 14.1182H4.38989V29.2515H30.0001V14.1182Z" fill="url(#paint0_linear)"/>
<path d="M23.0154 14.1182L25.6369 16.7397C25.6171 16.8363 25.5787 16.926 25.5787 17.0284C25.5787 17.8631 26.2551 18.5382 27.0897 18.5382C27.1922 18.5382 27.2806 18.4998 27.3773 18.4812L30 21.1028V14.1182H23.0154Z" fill="url(#paint1_linear)"/>
<path d="M24.7615 23.1958C25.596 23.1958 26.2725 22.5193 26.2725 21.6848C26.2725 20.8503 25.596 20.1738 24.7615 20.1738C23.927 20.1738 23.2505 20.8503 23.2505 21.6848C23.2505 22.5193 23.927 23.1958 24.7615 23.1958Z" fill="url(#paint2_linear)"/>
<path d="M17.195 25.6592C19.7191 25.6592 21.7653 23.8798 21.7653 21.6849C21.7653 19.49 19.7191 17.7107 17.195 17.7107C14.6709 17.7107 12.6248 19.49 12.6248 21.6849C12.6248 23.8798 14.6709 25.6592 17.195 25.6592Z" fill="url(#paint3_linear)"/>
<path d="M9.62824 23.1947C10.4621 23.1947 11.1381 22.5187 11.1381 21.6849C11.1381 20.851 10.4621 20.175 9.62824 20.175C8.79439 20.175 8.11841 20.851 8.11841 21.6849C8.11841 22.5187 8.79439 23.1947 9.62824 23.1947Z" fill="url(#paint4_linear)"/>
<path d="M4.38989 21.1028L7.01144 18.4812C7.10806 18.501 7.1977 18.5394 7.30014 18.5394C8.1348 18.5394 8.80998 17.8631 8.80998 17.0284C8.80998 16.926 8.77156 16.8375 8.75177 16.7409L11.3745 14.1182H4.38989V21.1028Z" fill="url(#paint5_linear)"/>
<path d="M8.81114 26.3412C8.81114 25.5065 8.1348 24.8314 7.30014 24.8314C7.1977 24.8314 7.10923 24.8698 7.01261 24.8884L4.38989 22.2668V29.2514H11.3745L8.75294 26.6299C8.77273 26.5333 8.81114 26.4425 8.81114 26.3412Z" fill="url(#paint6_linear)"/>
<path d="M27.0897 24.8302C26.2551 24.8302 25.5799 25.5065 25.5799 26.3412C25.5799 26.4436 25.6183 26.5321 25.6381 26.6287L23.0154 29.2514H30V22.2668L27.3784 24.8884C27.2818 24.8686 27.1922 24.8302 27.0897 24.8302Z" fill="url(#paint7_linear)"/>
<path d="M21.5045 11.4105C22.3383 11.4105 23.0143 10.7346 23.0143 9.90071C23.0143 9.06685 22.3383 8.39087 21.5045 8.39087C20.6706 8.39087 19.9946 9.06685 19.9946 9.90071C19.9946 10.7346 20.6706 11.4105 21.5045 11.4105Z" fill="url(#paint8_linear)"/>
<path d="M2.64367 14.1182C2.64367 13.1543 3.42594 12.3721 4.38982 12.3721H5.34438L5.38745 12.2231L18.8642 4.84267L19.8945 5.14301C19.9236 5.23614 19.934 5.33392 19.9841 5.42356C20.3845 6.15694 21.3019 6.42352 22.0352 6.02307C22.1237 5.97418 22.1842 5.89851 22.2576 5.83448L23.2901 6.13715L25.6381 10.4234L25.3366 11.4548C25.2447 11.4827 25.1469 11.4932 25.0572 11.5421C24.7162 11.7283 24.4892 12.0333 24.3693 12.3721H28.8289L25.8186 6.87403H25.8197L22.4636 0.748535L16.3358 4.10347H16.337L6.12665 9.69464L0 13.0496L2.64367 17.8771V14.1182Z" fill="url(#paint9_linear)"/>
<path d="M12.9575 10.0509C11.9436 10.605 11.2137 11.4455 10.804 12.3721H19.2239C19.1564 12.017 19.0551 11.669 18.8758 11.3419C17.82 9.41644 15.1717 8.83904 12.9575 10.0509Z" fill="url(#paint10_linear)"/>
<defs>
<linearGradient id="paint0_linear" x1="17.195" y1="14.1182" x2="17.195" y2="29.2515" gradientUnits="userSpaceOnUse">
<stop stop-color="#FA709A"/>
<stop offset="1" stop-color="#FEE140"/>
</linearGradient>
<linearGradient id="paint1_linear" x1="26.5077" y1="14.1182" x2="26.5077" y2="21.1028" gradientUnits="userSpaceOnUse">
<stop stop-color="#FA709A"/>
<stop offset="1" stop-color="#FEE140"/>
</linearGradient>
<linearGradient id="paint2_linear" x1="24.7615" y1="20.1738" x2="24.7615" y2="23.1958" gradientUnits="userSpaceOnUse">
<stop stop-color="#FA709A"/>
<stop offset="1" stop-color="#FEE140"/>
</linearGradient>
<linearGradient id="paint3_linear" x1="17.195" y1="17.7107" x2="17.195" y2="25.6592" gradientUnits="userSpaceOnUse">
<stop stop-color="#FA709A"/>
<stop offset="1" stop-color="#FEE140"/>
</linearGradient>
<linearGradient id="paint4_linear" x1="9.62824" y1="20.175" x2="9.62824" y2="23.1947" gradientUnits="userSpaceOnUse">
<stop stop-color="#FA709A"/>
<stop offset="1" stop-color="#FEE140"/>
</linearGradient>
<linearGradient id="paint5_linear" x1="7.88219" y1="14.1182" x2="7.88219" y2="21.1028" gradientUnits="userSpaceOnUse">
<stop stop-color="#FA709A"/>
<stop offset="1" stop-color="#FEE140"/>
</linearGradient>
<linearGradient id="paint6_linear" x1="7.88219" y1="22.2668" x2="7.88219" y2="29.2514" gradientUnits="userSpaceOnUse">
<stop stop-color="#FA709A"/>
<stop offset="1" stop-color="#FEE140"/>
</linearGradient>
<linearGradient id="paint7_linear" x1="26.5077" y1="22.2668" x2="26.5077" y2="29.2514" gradientUnits="userSpaceOnUse">
<stop stop-color="#FA709A"/>
<stop offset="1" stop-color="#FEE140"/>
</linearGradient>
<linearGradient id="paint8_linear" x1="21.5045" y1="8.39087" x2="21.5045" y2="11.4105" gradientUnits="userSpaceOnUse">
<stop stop-color="#FA709A"/>
<stop offset="1" stop-color="#FEE140"/>
</linearGradient>
<linearGradient id="paint9_linear" x1="14.4145" y1="0.748535" x2="14.4145" y2="17.8771" gradientUnits="userSpaceOnUse">
<stop stop-color="#FA709A"/>
<stop offset="1" stop-color="#FEE140"/>
</linearGradient>
<linearGradient id="paint10_linear" x1="15.0139" y1="9.41699" x2="15.0139" y2="12.3721" gradientUnits="userSpaceOnUse">
<stop stop-color="#FA709A"/>
<stop offset="1" stop-color="#FEE140"/>
</linearGradient>
</defs>
</svg>
