<svg width="14" height="14" viewBox="0 0 14 14" fill="none" xmlns="http://www.w3.org/2000/svg">
<path d="M6.99993 0C4.42677 0 2.33325 2.09352 2.33325 4.66668C2.33325 5.43914 2.52638 6.20504 2.89353 6.88436L6.74473 13.8496C6.796 13.9425 6.8937 14 6.99993 14C7.10616 14 7.20386 13.9425 7.25513 13.8496L11.1078 6.88207C11.4735 6.20504 11.6666 5.43911 11.6666 4.66665C11.6666 2.09352 9.57308 0 6.99993 0ZM6.99993 7C5.71335 7 4.6666 5.95325 4.6666 4.66668C4.6666 3.3801 5.71335 2.33335 6.99993 2.33335C8.28651 2.33335 9.33325 3.3801 9.33325 4.66668C9.33325 5.95325 8.28651 7 6.99993 7Z" fill="#404040"/>
</svg>
