<svg width="30" height="30" viewBox="0 0 30 30" fill="none" xmlns="http://www.w3.org/2000/svg">
<path fill-rule="evenodd" clip-rule="evenodd" d="M2.51929 5.15601C2.51929 5.61106 2.15037 5.97998 1.69531 5.97998C1.24015 5.97998 0.871338 5.61106 0.871338 5.15601V1.69531C0.871338 1.24015 1.24015 0.871338 1.69531 0.871338H5.15579C5.61095 0.871338 5.97976 1.24015 5.97976 1.69531C5.97976 2.15037 5.61095 2.51929 5.15579 2.51929H2.51929V5.15601ZM13.8901 22.844C13.435 22.844 13.0662 22.4751 13.0662 22.02C13.0662 21.5649 13.435 21.196 13.8901 21.196H14.6042C15.0593 21.196 15.4282 21.5649 15.4282 22.02C15.4282 22.4751 15.0593 22.844 14.6042 22.844H13.8901ZM14.4944 11.8577C14.4944 12.3127 14.1255 12.6816 13.6704 12.6816C13.2152 12.6816 12.8464 12.3127 12.8464 11.8577V11.1436C12.8464 10.6884 13.2152 10.3196 13.6704 10.3196C14.1255 10.3196 14.4944 10.6884 14.4944 11.1436V11.8577ZM19.5481 21.0862C19.0929 21.0862 18.7241 20.7173 18.7241 20.2622C18.7241 19.807 19.0929 19.4382 19.5481 19.4382H20.2622C20.7173 19.4382 21.0862 19.807 21.0862 20.2622C21.0862 20.7173 20.7173 21.0862 20.2622 21.0862H19.5481ZM2.54675 15.7578H6.38098C6.37 15.8111 6.3645 15.8661 6.3645 15.9226V18.3945C6.3645 18.8496 6.73331 19.2185 7.18848 19.2185C7.64353 19.2185 8.01245 18.8496 8.01245 18.3945V15.9226C8.01245 15.8661 8.00696 15.8111 7.99597 15.7578H15.2634V16.6917H10.9238C10.4687 16.6917 10.0999 17.0605 10.0999 17.5156C10.0999 17.9707 10.4687 18.3396 10.9238 18.3396H16.0874C16.5425 18.3396 16.9114 17.9707 16.9114 17.5156V15.7578H19.9875V18.1748C19.9875 18.6299 20.3564 18.9988 20.8115 18.9988C21.2666 18.9988 21.6355 18.6299 21.6355 18.1748V15.7578H27.3209C27.776 15.7578 28.1449 15.3889 28.1449 14.9338C28.1449 14.4787 27.776 14.1099 27.3209 14.1099H23.5581V12.5168H24.3821C24.8371 12.5168 25.2061 12.1479 25.2061 11.6929C25.2061 11.2377 24.8371 10.8689 24.3821 10.8689H20.2622C19.807 10.8689 19.4382 11.2377 19.4382 11.6929C19.4382 12.1479 19.807 12.5168 20.2622 12.5168H21.9102V14.1099H16.9114V11.9675C16.9114 11.5124 16.5425 11.1436 16.0874 11.1436C15.6322 11.1436 15.2634 11.5124 15.2634 11.9675V14.1099H2.54675C2.09159 14.1099 1.72278 14.4787 1.72278 14.9338C1.72278 15.3889 2.09159 15.7578 2.54675 15.7578ZM16.8015 5.65039C16.8015 5.19523 17.1703 4.82642 17.6255 4.82642C18.0805 4.82642 18.4495 5.19523 18.4495 5.65039V9.98999C18.4495 10.445 18.0805 10.814 17.6255 10.814C17.1703 10.814 16.8015 10.445 16.8015 9.98999V5.65039ZM11.9126 5.97998H13.7803V5.65039C13.7803 5.19523 14.1491 4.82642 14.6042 4.82642C15.0593 4.82642 15.4282 5.19523 15.4282 5.65039V8.39697C15.4282 8.85203 15.0593 9.22095 14.6042 9.22095C14.1491 9.22095 13.7803 8.85203 13.7803 8.39697V7.62793H11.9126V8.01245C11.9126 8.46751 11.5437 8.83643 11.0886 8.83643C10.6335 8.83643 10.2646 8.46751 10.2646 8.01245V5.65039C10.2646 5.19523 10.6335 4.82642 11.0886 4.82642C11.5437 4.82642 11.9126 5.19523 11.9126 5.65039V5.97998ZM5.32058 12.4619C4.86564 12.4619 4.49661 12.093 4.49661 11.6379C4.49661 11.1828 4.86564 10.814 5.32058 10.814H11.4182C11.8733 10.814 12.2422 11.1828 12.2422 11.6379C12.2422 12.093 11.8733 12.4619 11.4182 12.4619H5.32058ZM23.2834 23.3933V24.2173C23.2834 24.6723 23.6523 25.0413 24.1074 25.0413C24.5625 25.0413 24.9314 24.6723 24.9314 24.2173V19.2734C24.9314 18.8186 24.5625 18.4495 24.1074 18.4495C23.6523 18.4495 23.2834 18.8186 23.2834 19.2734V21.7454H20.5369C20.0817 21.7454 19.7129 22.1145 19.7129 22.5693C19.7129 23.0244 20.0817 23.3933 20.5369 23.3933H23.2834ZM14.8789 25.0413H17.3508C17.8059 25.0413 18.1748 24.6723 18.1748 24.2173V19.9876C18.1748 19.5324 17.8059 19.1636 17.3508 19.1636C16.8957 19.1636 16.5269 19.5324 16.5269 19.9876V23.3933H14.8789C14.4237 23.3933 14.0549 23.7621 14.0549 24.2173C14.0549 24.6723 14.4237 25.0413 14.8789 25.0413ZM10.3196 20.0425C10.3196 19.5873 10.6884 19.2185 11.1436 19.2185C11.5986 19.2185 11.9675 19.5873 11.9675 20.0425V22.4595C11.9675 22.9145 11.5986 23.2834 11.1436 23.2834C10.6884 23.2834 10.3196 22.9145 10.3196 22.4595V20.0425ZM5.3208 19.9326H8.78149C9.23655 19.9326 9.60547 20.3014 9.60547 20.7566V24.2173C9.60547 24.6723 9.23655 25.0413 8.78149 25.0413H5.3208C4.86564 25.0413 4.49683 24.6723 4.49683 24.2173V20.7566C4.49683 20.3014 4.86564 19.9326 5.3208 19.9326ZM7.95752 21.5806H6.14478V23.3933H7.95752V21.5806ZM21.0862 4.82642H24.5469C25.0019 4.82642 25.3709 5.19523 25.3709 5.65039V9.11108C25.3709 9.56614 25.0019 9.93506 24.5469 9.93506H21.0862C20.631 9.93506 20.2622 9.56614 20.2622 9.11108V5.65039C20.2622 5.19523 20.631 4.82642 21.0862 4.82642ZM23.7229 6.47437H21.9102V8.28711H23.7229V6.47437ZM5.3208 4.82642C4.86564 4.82642 4.49683 5.19523 4.49683 5.65039V9.11108C4.49683 9.56614 4.86564 9.93506 5.3208 9.93506H8.78149C9.23655 9.93506 9.60547 9.56614 9.60547 9.11108V5.65039C9.60547 5.19523 9.23655 4.82642 8.78149 4.82642H5.3208ZM7.95752 6.47437V8.28711H6.14478V6.47437H7.95752ZM27.3484 24.7117C27.3484 24.2565 27.7172 23.8877 28.1724 23.8877C28.6274 23.8877 28.9963 24.2565 28.9963 24.7117V28.1724C28.9963 28.6274 28.6274 28.9963 28.1724 28.9963H24.7118C24.2568 28.9963 23.8878 28.6274 23.8878 28.1724C23.8878 27.7172 24.2568 27.3484 24.7118 27.3484H27.3484V24.7117ZM0.871338 24.7117V28.1724C0.871338 28.6274 1.24015 28.9963 1.69531 28.9963H5.15579C5.61095 28.9963 5.97976 28.6274 5.97976 28.1724C5.97976 27.7172 5.61095 27.3484 5.15579 27.3484H2.51929V24.7117C2.51929 24.2565 2.15037 23.8877 1.69531 23.8877C1.24015 23.8877 0.871338 24.2565 0.871338 24.7117ZM28.9963 5.15601V1.69531C28.9963 1.24015 28.6274 0.871338 28.1724 0.871338H24.7118C24.2568 0.871338 23.8878 1.24015 23.8878 1.69531C23.8878 2.15037 24.2568 2.51929 24.7118 2.51929H27.3484V5.15601C27.3484 5.61106 27.7172 5.97998 28.1724 5.97998C28.6274 5.97998 28.9963 5.61106 28.9963 5.15601Z" fill="url(#paint0_linear)"/>
<defs>
<linearGradient id="paint0_linear" x1="14.9338" y1="0.871338" x2="14.9338" y2="28.9963" gradientUnits="userSpaceOnUse">
<stop stop-color="#FA709A"/>
<stop offset="1" stop-color="#FEE140"/>
</linearGradient>
</defs>
</svg>
