<svg width="30" height="30" viewBox="0 0 30 30" fill="none" xmlns="http://www.w3.org/2000/svg">
<g clip-path="url(#clip0)">
<path d="M3.17334 3.49813V29.485C3.17334 29.7611 3.3971 29.9848 3.67314 29.9848H22.6636C22.9395 29.9848 23.1632 29.7611 23.1632 29.485V8.49576C23.1632 8.48464 23.1579 8.47517 23.1568 8.46426C23.1544 8.42042 23.1457 8.37719 23.1313 8.33581C23.1258 8.31976 23.1218 8.30432 23.1148 8.28867C23.0906 8.23433 23.0568 8.18472 23.0148 8.14231L18.0174 3.14489C17.975 3.1027 17.9252 3.06894 17.8704 3.04485C17.8554 3.03847 17.8401 3.03312 17.8245 3.02838C17.7827 3.01397 17.7393 3.00533 17.695 3.00245C17.6866 3.00389 17.6767 2.99854 17.6662 2.99854H3.67314C3.3971 2.99854 3.17334 3.22209 3.17334 3.49813ZM21.4571 7.99595H18.1658V4.70462L21.4571 7.99595ZM4.17274 3.99794H17.1664V8.49576C17.1664 8.7716 17.3902 8.99536 17.666 8.99536H22.1638V28.9854H4.17274V3.99794Z" fill="url(#paint0_linear)"/>
<path d="M24.1627 25.9869V26.9863H25.6619C25.938 26.9863 26.1617 26.7628 26.1617 26.4867V0.499804C26.1617 0.223759 25.938 0 25.6619 0H6.67143C6.39539 0 6.17163 0.223759 6.17163 0.499804V1.99901H7.17124V0.999401H25.1621V25.9869H24.1627Z" fill="url(#paint1_linear)"/>
<path d="M7.17139 9.99512H19.1652V10.9945H7.17139V9.99512Z" fill="url(#paint2_linear)"/>
<path d="M7.17139 6.99634H11.1694V7.99594H7.17139V6.99634Z" fill="url(#paint3_linear)"/>
<path d="M7.17139 12.9934H15.1674V13.993H7.17139V12.9934Z" fill="url(#paint4_linear)"/>
<path d="M16.1667 12.9934H19.1652V13.993H16.1667V12.9934Z" fill="url(#paint5_linear)"/>
<path d="M7.17139 15.9919H19.1652V16.9916H7.17139V15.9919Z" fill="url(#paint6_linear)"/>
<path d="M7.17139 21.9888H19.1652V22.9884H7.17139V21.9888Z" fill="url(#paint7_linear)"/>
<path d="M11.6687 18.9905H19.1649V19.9899H11.6687V18.9905Z" fill="url(#paint8_linear)"/>
<path d="M7.17139 18.9905H10.6696V19.9899H7.17139V18.9905Z" fill="url(#paint9_linear)"/>
<path d="M7.17139 24.9875H9.17039V25.9869H7.17139V24.9875Z" fill="url(#paint10_linear)"/>
<path d="M10.1697 24.9875H19.1651V25.9869H10.1697V24.9875Z" fill="url(#paint11_linear)"/>
</g>
<defs>
<linearGradient id="paint0_linear" x1="13.1683" y1="2.99854" x2="13.1683" y2="29.9848" gradientUnits="userSpaceOnUse">
<stop stop-color="#FA709A"/>
<stop offset="1" stop-color="#FEE140"/>
</linearGradient>
<linearGradient id="paint1_linear" x1="16.1667" y1="0" x2="16.1667" y2="26.9863" gradientUnits="userSpaceOnUse">
<stop stop-color="#FA709A"/>
<stop offset="1" stop-color="#FEE140"/>
</linearGradient>
<linearGradient id="paint2_linear" x1="13.1683" y1="9.99512" x2="13.1683" y2="10.9945" gradientUnits="userSpaceOnUse">
<stop stop-color="#FA709A"/>
<stop offset="1" stop-color="#FEE140"/>
</linearGradient>
<linearGradient id="paint3_linear" x1="9.17039" y1="6.99634" x2="9.17039" y2="7.99594" gradientUnits="userSpaceOnUse">
<stop stop-color="#FA709A"/>
<stop offset="1" stop-color="#FEE140"/>
</linearGradient>
<linearGradient id="paint4_linear" x1="11.1694" y1="12.9934" x2="11.1694" y2="13.993" gradientUnits="userSpaceOnUse">
<stop stop-color="#FA709A"/>
<stop offset="1" stop-color="#FEE140"/>
</linearGradient>
<linearGradient id="paint5_linear" x1="17.666" y1="12.9934" x2="17.666" y2="13.993" gradientUnits="userSpaceOnUse">
<stop stop-color="#FA709A"/>
<stop offset="1" stop-color="#FEE140"/>
</linearGradient>
<linearGradient id="paint6_linear" x1="13.1683" y1="15.9919" x2="13.1683" y2="16.9916" gradientUnits="userSpaceOnUse">
<stop stop-color="#FA709A"/>
<stop offset="1" stop-color="#FEE140"/>
</linearGradient>
<linearGradient id="paint7_linear" x1="13.1683" y1="21.9888" x2="13.1683" y2="22.9884" gradientUnits="userSpaceOnUse">
<stop stop-color="#FA709A"/>
<stop offset="1" stop-color="#FEE140"/>
</linearGradient>
<linearGradient id="paint8_linear" x1="15.4168" y1="18.9905" x2="15.4168" y2="19.9899" gradientUnits="userSpaceOnUse">
<stop stop-color="#FA709A"/>
<stop offset="1" stop-color="#FEE140"/>
</linearGradient>
<linearGradient id="paint9_linear" x1="8.9205" y1="18.9905" x2="8.9205" y2="19.9899" gradientUnits="userSpaceOnUse">
<stop stop-color="#FA709A"/>
<stop offset="1" stop-color="#FEE140"/>
</linearGradient>
<linearGradient id="paint10_linear" x1="8.17089" y1="24.9875" x2="8.17089" y2="25.9869" gradientUnits="userSpaceOnUse">
<stop stop-color="#FA709A"/>
<stop offset="1" stop-color="#FEE140"/>
</linearGradient>
<linearGradient id="paint11_linear" x1="14.6674" y1="24.9875" x2="14.6674" y2="25.9869" gradientUnits="userSpaceOnUse">
<stop stop-color="#FA709A"/>
<stop offset="1" stop-color="#FEE140"/>
</linearGradient>
<clipPath id="clip0">
<rect width="30" height="30" fill="white"/>
</clipPath>
</defs>
</svg>
