<svg width="40" height="40" viewBox="0 0 40 40" fill="none" xmlns="http://www.w3.org/2000/svg">
<g clip-path="url(#clip0)">
<path d="M27.35 30.8618H27.3404C26.9089 30.8618 26.5591 31.2116 26.5591 31.6431C26.5591 32.0746 26.9089 32.4243 27.3404 32.4243H27.35C27.7815 32.4243 28.1312 32.0746 28.1312 31.6431C28.1312 31.2116 27.7815 30.8618 27.35 30.8618Z" fill="url(#paint0_linear)"/>
<path d="M25.5401 32.7921C25.3079 32.4284 24.825 32.3218 24.4613 32.5539L16.2533 37.7932V24.5313C16.2533 24.0998 15.9035 23.75 15.472 23.75C15.0405 23.75 14.6908 24.0998 14.6908 24.5313V37.7993L4.3751 31.2149V20.0001C4.3751 19.5687 4.02533 19.2189 3.59385 19.2189C3.16237 19.2189 2.8126 19.5687 2.8126 20.0001V31.6431C2.8126 31.9098 2.9487 32.1581 3.17354 32.3016L15.042 39.8772C15.1676 39.9573 15.3134 39.9999 15.4623 39.9999H15.4719C15.6209 39.9999 15.7667 39.9573 15.8922 39.8772L25.3019 33.8709C25.6656 33.6388 25.7723 33.1559 25.5401 32.7921Z" fill="url(#paint1_linear)"/>
<path d="M16.0242 20.9094C15.8789 20.7641 15.6774 20.6805 15.4719 20.6805C15.2664 20.6805 15.0649 20.7641 14.9196 20.9094C14.7743 21.0547 14.6907 21.2563 14.6907 21.4618C14.6907 21.6672 14.7743 21.8688 14.9196 22.0141C15.0649 22.1602 15.2664 22.243 15.4719 22.243C15.6774 22.243 15.8789 22.1602 16.0242 22.0141C16.1696 21.8688 16.2532 21.6672 16.2532 21.4618C16.2532 21.2563 16.1696 21.0547 16.0242 20.9094Z" fill="url(#paint2_linear)"/>
<path d="M33.5676 23.5693C31.9306 23.5693 30.5988 24.9011 30.5988 26.538C30.5988 28.175 31.9306 29.5068 33.5676 29.5068C35.2045 29.5068 36.5363 28.175 36.5363 26.538C36.5363 24.9011 35.2045 23.5693 33.5676 23.5693ZM33.5676 27.9443C32.7922 27.9443 32.1613 27.3134 32.1613 26.538C32.1613 25.7626 32.7922 25.1318 33.5676 25.1318C34.343 25.1318 34.9738 25.7626 34.9738 26.538C34.9738 27.3134 34.343 27.9443 33.5676 27.9443Z" fill="url(#paint3_linear)"/>
<path d="M40.0006 26.4449V18.3335C40.0006 18.0668 39.8645 17.8185 39.6396 17.675L27.7712 10.0994C27.6456 10.0193 27.4998 9.97668 27.3509 9.97668H27.3413C27.1923 9.97668 27.0465 10.0193 26.9209 10.0994L15.468 17.4098L12.1323 15.2806L14.0213 12.8592C14.0232 12.8568 14.0251 12.8544 14.0269 12.8519C15.159 11.4534 15.7821 9.69254 15.7821 7.89052C15.7821 3.53975 12.2423 0 7.89149 0C3.54065 0 0.000976562 3.53975 0.000976562 7.89052C0.000976562 9.70598 0.631677 11.4757 1.77784 12.8791C1.92073 13.0718 2.15019 13.1968 2.40815 13.1968C2.71073 13.1968 2.98604 13.0221 3.11495 12.7485C3.24385 12.4748 3.20315 12.1512 3.0105 11.918C2.07737 10.7887 1.56347 9.3584 1.56347 7.89059C1.56347 4.40123 4.40221 1.56249 7.89157 1.56249C11.3809 1.56249 14.2197 4.40123 14.2197 7.89059C14.2197 9.3427 13.7152 10.7614 12.7994 11.8851C12.7906 11.8959 12.7822 11.9068 12.7741 11.9179L7.89141 18.1762L6.24267 16.064C5.9772 15.7238 5.48627 15.6633 5.14611 15.9288C4.80596 16.1943 4.74549 16.6852 5.01096 17.0254L7.27556 19.9267C7.4236 20.1164 7.65087 20.2273 7.89149 20.2273C8.1322 20.2273 8.35938 20.1163 8.50735 19.9266L11.1667 16.5179L15.0427 18.992C15.1683 19.0721 15.3141 19.1147 15.463 19.1147H15.4726C15.6216 19.1147 15.7674 19.0721 15.8929 18.992L26.5599 12.1834V21.0837C26.5599 21.5152 26.9096 21.865 27.3411 21.865C27.7726 21.865 28.1224 21.5152 28.1224 21.0837V12.1772L38.4379 18.7616V22.2526C37.2575 20.8843 35.5129 20.0156 33.5682 20.0156C30.0214 20.0156 27.1359 22.9012 27.1359 26.4479C27.1359 27.9165 27.6423 29.3486 28.5634 30.4886C28.572 30.5011 28.581 30.5134 28.5905 30.5255L32.9524 36.1138C33.1005 36.3035 33.3277 36.4144 33.5683 36.4143C33.809 36.4143 34.0362 36.3034 34.1842 36.1136L38.4379 30.6614V37.7933L36.4147 36.5019C36.0511 36.2697 35.568 36.3763 35.3358 36.7401C35.1037 37.1038 35.2104 37.5868 35.574 37.819L38.7989 39.8774C38.9268 39.959 39.0729 40.0002 39.2193 40.0002C39.3482 40.0002 39.4775 39.9682 39.5947 39.9041C39.845 39.767 40.0005 39.5043 40.0005 39.2189V26.4514L40.0007 26.4479L40.0006 26.4449ZM38.4381 26.4514C38.4373 27.5676 38.0493 28.6579 37.3452 29.5218C37.3371 29.5317 37.3292 29.5418 37.3217 29.5522L33.5683 34.3631L29.8627 29.6158C29.8472 29.5922 29.8303 29.5693 29.812 29.5471C29.0941 28.6781 28.6986 27.5774 28.6986 26.4479C28.6986 23.7626 30.8832 21.5781 33.5683 21.5781C36.2526 21.5781 38.4365 23.7611 38.4381 26.4448V26.4514Z" fill="url(#paint4_linear)"/>
<path d="M4.69306 14.0893C4.54775 13.9439 4.34619 13.8603 4.14072 13.8603C3.93525 13.8603 3.73369 13.9439 3.58838 14.0893C3.44307 14.2346 3.35947 14.4361 3.35947 14.6416C3.35947 14.8478 3.44307 15.0486 3.58838 15.1939C3.73369 15.34 3.93525 15.4228 4.14072 15.4228C4.34619 15.4228 4.54775 15.34 4.69306 15.1939C4.83837 15.0486 4.92197 14.8478 4.92197 14.6416C4.92197 14.4361 4.83837 14.2346 4.69306 14.0893Z" fill="url(#paint5_linear)"/>
<path d="M7.89065 3.47286C5.39215 3.47286 3.35942 5.50559 3.35942 8.0041C3.35942 10.5026 5.39215 12.5353 7.89065 12.5353C10.3892 12.5353 12.4219 10.5026 12.4219 8.0041C12.4219 5.50559 10.3892 3.47286 7.89065 3.47286ZM7.89065 10.9728C6.2537 10.9728 4.92191 9.64097 4.92191 8.00402C4.92191 6.36707 6.2537 5.03528 7.89065 5.03528C9.5276 5.03528 10.8594 6.36707 10.8594 8.00402C10.8594 9.64097 9.5276 10.9728 7.89065 10.9728Z" fill="url(#paint6_linear)"/>
</g>
<defs>
<linearGradient id="paint0_linear" x1="7.5" y1="0" x2="7.5" y2="40" gradientUnits="userSpaceOnUse">
<stop stop-color="#FA709A"/>
<stop offset="1" stop-color="#FEE140"/>
</linearGradient>
<linearGradient id="paint1_linear" x1="7.5" y1="0" x2="7.5" y2="40" gradientUnits="userSpaceOnUse">
<stop stop-color="#FA709A"/>
<stop offset="1" stop-color="#FEE140"/>
</linearGradient>
<linearGradient id="paint2_linear" x1="7.5" y1="0" x2="7.5" y2="40" gradientUnits="userSpaceOnUse">
<stop stop-color="#FA709A"/>
<stop offset="1" stop-color="#FEE140"/>
</linearGradient>
<linearGradient id="paint3_linear" x1="7.5" y1="0" x2="7.5" y2="40" gradientUnits="userSpaceOnUse">
<stop stop-color="#FA709A"/>
<stop offset="1" stop-color="#FEE140"/>
</linearGradient>
<linearGradient id="paint4_linear" x1="7.5" y1="0" x2="7.5" y2="40" gradientUnits="userSpaceOnUse">
<stop stop-color="#FA709A"/>
<stop offset="1" stop-color="#FEE140"/>
</linearGradient>
<linearGradient id="paint5_linear" x1="7.5" y1="0" x2="7.5" y2="40" gradientUnits="userSpaceOnUse">
<stop stop-color="#FA709A"/>
<stop offset="1" stop-color="#FEE140"/>
</linearGradient>
<linearGradient id="paint6_linear" x1="7.5" y1="0" x2="7.5" y2="40" gradientUnits="userSpaceOnUse">
<stop stop-color="#FA709A"/>
<stop offset="1" stop-color="#FEE140"/>
</linearGradient>
<clipPath id="clip0">
<rect width="40" height="40" fill="white"/>
</clipPath>
</defs>
</svg>
