<svg width="40" height="40" viewBox="0 0 40 40" fill="none" xmlns="http://www.w3.org/2000/svg">
<path d="M35.625 3.75H31.875V3.125C31.875 2.62772 31.6775 2.15081 31.3258 1.79917C30.9742 1.44754 30.4973 1.25 30 1.25C29.5027 1.25 29.0258 1.44754 28.6742 1.79917C28.3225 2.15081 28.125 2.62772 28.125 3.125V3.75H21.875V3.125C21.875 2.62772 21.6775 2.15081 21.3258 1.79917C20.9742 1.44754 20.4973 1.25 20 1.25C19.5027 1.25 19.0258 1.44754 18.6742 1.79917C18.3225 2.15081 18.125 2.62772 18.125 3.125V3.75H11.875V3.125C11.875 2.62772 11.6775 2.15081 11.3258 1.79917C10.9742 1.44754 10.4973 1.25 10 1.25C9.50272 1.25 9.0258 1.44754 8.67417 1.79917C8.32254 2.15081 8.125 2.62772 8.125 3.125V3.75H4.375C3.54648 3.75093 2.75217 4.08047 2.16632 4.66632C1.58047 5.25217 1.25093 6.04648 1.25 6.875V35.625C1.25093 36.4535 1.58047 37.2478 2.16632 37.8337C2.75217 38.4195 3.54648 38.7491 4.375 38.75H35.625C36.4535 38.7491 37.2478 38.4195 37.8337 37.8337C38.4195 37.2478 38.7491 36.4535 38.75 35.625V6.875C38.7491 6.04648 38.4195 5.25217 37.8337 4.66632C37.2478 4.08047 36.4535 3.75093 35.625 3.75ZM29.375 3.125C29.375 2.95924 29.4408 2.80027 29.5581 2.68306C29.6753 2.56585 29.8342 2.5 30 2.5C30.1658 2.5 30.3247 2.56585 30.4419 2.68306C30.5592 2.80027 30.625 2.95924 30.625 3.125V6.875C30.625 7.04076 30.5592 7.19973 30.4419 7.31694C30.3247 7.43415 30.1658 7.5 30 7.5C29.8342 7.5 29.6753 7.43415 29.5581 7.31694C29.4408 7.19973 29.375 7.04076 29.375 6.875V3.125ZM19.375 3.125C19.375 2.95924 19.4408 2.80027 19.5581 2.68306C19.6753 2.56585 19.8342 2.5 20 2.5C20.1658 2.5 20.3247 2.56585 20.4419 2.68306C20.5592 2.80027 20.625 2.95924 20.625 3.125V6.875C20.625 7.04076 20.5592 7.19973 20.4419 7.31694C20.3247 7.43415 20.1658 7.5 20 7.5C19.8342 7.5 19.6753 7.43415 19.5581 7.31694C19.4408 7.19973 19.375 7.04076 19.375 6.875V3.125ZM9.375 3.125C9.375 2.95924 9.44085 2.80027 9.55806 2.68306C9.67527 2.56585 9.83424 2.5 10 2.5C10.1658 2.5 10.3247 2.56585 10.4419 2.68306C10.5592 2.80027 10.625 2.95924 10.625 3.125V6.875C10.625 7.04076 10.5592 7.19973 10.4419 7.31694C10.3247 7.43415 10.1658 7.5 10 7.5C9.83424 7.5 9.67527 7.43415 9.55806 7.31694C9.44085 7.19973 9.375 7.04076 9.375 6.875V3.125ZM4.375 5H8.125V6.875C8.125 7.37228 8.32254 7.8492 8.67417 8.20083C9.0258 8.55246 9.50272 8.75 10 8.75C10.4973 8.75 10.9742 8.55246 11.3258 8.20083C11.6775 7.8492 11.875 7.37228 11.875 6.875V5H18.125V6.875C18.125 7.37228 18.3225 7.8492 18.6742 8.20083C19.0258 8.55246 19.5027 8.75 20 8.75C20.4973 8.75 20.9742 8.55246 21.3258 8.20083C21.6775 7.8492 21.875 7.37228 21.875 6.875V5H28.125V6.875C28.125 7.37228 28.3225 7.8492 28.6742 8.20083C29.0258 8.55246 29.5027 8.75 30 8.75C30.4973 8.75 30.9742 8.55246 31.3258 8.20083C31.6775 7.8492 31.875 7.37228 31.875 6.875V5H35.625C36.1221 5.00058 36.5987 5.19831 36.9502 5.54981C37.3017 5.90132 37.4994 6.3779 37.5 6.875V11.25H2.5V6.875C2.50058 6.3779 2.69831 5.90132 3.04981 5.54981C3.40132 5.19831 3.8779 5.00058 4.375 5ZM35.625 37.5H4.375C3.8779 37.4994 3.40132 37.3017 3.04981 36.9502C2.69831 36.5987 2.50058 36.1221 2.5 35.625V12.5H37.5V35.625C37.4994 36.1221 37.3017 36.5987 36.9502 36.9502C36.5987 37.3017 36.1221 37.4994 35.625 37.5ZM34.375 16.875H31.875C31.7092 16.875 31.5503 16.9408 31.4331 17.0581C31.3158 17.1753 31.25 17.3342 31.25 17.5V20C31.25 20.1658 31.3158 20.3247 31.4331 20.4419C31.5503 20.5592 31.7092 20.625 31.875 20.625H34.375C34.5408 20.625 34.6997 20.5592 34.8169 20.4419C34.9342 20.3247 35 20.1658 35 20V17.5C35 17.3342 34.9342 17.1753 34.8169 17.0581C34.6997 16.9408 34.5408 16.875 34.375 16.875ZM33.75 19.375H32.5V18.125H33.75V19.375ZM21.875 29.375H19.375C19.2092 29.375 19.0503 29.4408 18.9331 29.5581C18.8158 29.6753 18.75 29.8342 18.75 30V32.5C18.75 32.6658 18.8158 32.8247 18.9331 32.9419C19.0503 33.0592 19.2092 33.125 19.375 33.125H21.875C22.0408 33.125 22.1997 33.0592 22.3169 32.9419C22.4342 32.8247 22.5 32.6658 22.5 32.5V30C22.5 29.8342 22.4342 29.6753 22.3169 29.5581C22.1997 29.4408 22.0408 29.375 21.875 29.375ZM21.25 31.875H20V30.625H21.25V31.875ZM15.625 16.875H13.125C12.9592 16.875 12.8003 16.9408 12.6831 17.0581C12.5658 17.1753 12.5 17.3342 12.5 17.5V20C12.5 20.1658 12.5658 20.3247 12.6831 20.4419C12.8003 20.5592 12.9592 20.625 13.125 20.625H15.625C15.7908 20.625 15.9497 20.5592 16.0669 20.4419C16.1842 20.3247 16.25 20.1658 16.25 20V17.5C16.25 17.3342 16.1842 17.1753 16.0669 17.0581C15.9497 16.9408 15.7908 16.875 15.625 16.875ZM15 19.375H13.75V18.125H15V19.375ZM9.375 23.125H6.875C6.70924 23.125 6.55027 23.1908 6.43306 23.3081C6.31585 23.4253 6.25 23.5842 6.25 23.75V26.25C6.25 26.4158 6.31585 26.5747 6.43306 26.6919C6.55027 26.8092 6.70924 26.875 6.875 26.875H9.375C9.54076 26.875 9.69973 26.8092 9.81694 26.6919C9.93415 26.5747 10 26.4158 10 26.25V23.75C10 23.5842 9.93415 23.4253 9.81694 23.3081C9.69973 23.1908 9.54076 23.125 9.375 23.125ZM8.75 25.625H7.5V24.375H8.75V25.625ZM15.625 23.125H13.125C12.9592 23.125 12.8003 23.1908 12.6831 23.3081C12.5658 23.4253 12.5 23.5842 12.5 23.75V26.25C12.5 26.4158 12.5658 26.5747 12.6831 26.6919C12.8003 26.8092 12.9592 26.875 13.125 26.875H15.625C15.7908 26.875 15.9497 26.8092 16.0669 26.6919C16.1842 26.5747 16.25 26.4158 16.25 26.25V23.75C16.25 23.5842 16.1842 23.4253 16.0669 23.3081C15.9497 23.1908 15.7908 23.125 15.625 23.125ZM15 25.625H13.75V24.375H15V25.625ZM9.375 29.375H6.875C6.70924 29.375 6.55027 29.4408 6.43306 29.5581C6.31585 29.6753 6.25 29.8342 6.25 30V32.5C6.25 32.6658 6.31585 32.8247 6.43306 32.9419C6.55027 33.0592 6.70924 33.125 6.875 33.125H9.375C9.54076 33.125 9.69973 33.0592 9.81694 32.9419C9.93415 32.8247 10 32.6658 10 32.5V30C10 29.8342 9.93415 29.6753 9.81694 29.5581C9.69973 29.4408 9.54076 29.375 9.375 29.375ZM8.75 31.875H7.5V30.625H8.75V31.875ZM15.625 29.375H13.125C12.9592 29.375 12.8003 29.4408 12.6831 29.5581C12.5658 29.6753 12.5 29.8342 12.5 30V32.5C12.5 32.6658 12.5658 32.8247 12.6831 32.9419C12.8003 33.0592 12.9592 33.125 13.125 33.125H15.625C15.7908 33.125 15.9497 33.0592 16.0669 32.9419C16.1842 32.8247 16.25 32.6658 16.25 32.5V30C16.25 29.8342 16.1842 29.6753 16.0669 29.5581C15.9497 29.4408 15.7908 29.375 15.625 29.375ZM15 31.875H13.75V30.625H15V31.875ZM28.8444 19.4518L25.7194 18.9743L24.3158 15.9844C24.2653 15.8769 24.1854 15.786 24.0852 15.7224C23.985 15.6587 23.8687 15.6249 23.75 15.6249C23.6313 15.6249 23.515 15.6587 23.4148 15.7224C23.3146 15.786 23.2347 15.8769 23.1842 15.9844L21.7812 18.9743L18.6562 19.4518C18.5426 19.4691 18.4359 19.5174 18.3479 19.5914C18.26 19.6655 18.1941 19.7623 18.1576 19.8713C18.1211 19.9804 18.1154 20.0973 18.1411 20.2094C18.1668 20.3215 18.2229 20.4243 18.3033 20.5065L20.583 22.843L20.044 26.1497C20.0253 26.2653 20.0395 26.3838 20.085 26.4917C20.1304 26.5996 20.2052 26.6926 20.3009 26.7601C20.3966 26.8275 20.5094 26.8668 20.6263 26.8733C20.7432 26.8798 20.8596 26.8533 20.9622 26.7969L23.75 25.2559L26.5378 26.7969C26.6405 26.8536 26.757 26.8803 26.8741 26.874C26.9913 26.8676 27.1042 26.8284 27.2001 26.7608C27.296 26.6933 27.371 26.6001 27.4164 26.492C27.4618 26.3838 27.4759 26.2651 27.457 26.1493L26.918 22.8426L29.1977 20.5061C29.2781 20.4239 29.3342 20.3211 29.3599 20.209C29.3856 20.0969 29.3799 19.98 29.3434 19.8709C29.3069 19.7619 29.2411 19.6651 29.1531 19.591C29.0651 19.517 28.9584 19.4687 28.8448 19.4514L28.8444 19.4518ZM25.8027 22.1953C25.7343 22.2653 25.6834 22.3504 25.654 22.4437C25.6245 22.537 25.6174 22.6359 25.6331 22.7324L26.0159 25.0802L24.0522 23.9942C23.9596 23.9431 23.8556 23.9162 23.7498 23.9162C23.6441 23.9162 23.5401 23.9431 23.4475 23.9942L21.4837 25.0802L21.8666 22.7324C21.8823 22.6359 21.8752 22.537 21.8457 22.4437C21.8163 22.3504 21.7654 22.2653 21.697 22.1953L20.0469 20.5037L22.2995 20.16C22.4009 20.1445 22.497 20.1042 22.5792 20.0428C22.6614 19.9814 22.7272 19.9006 22.7708 19.8077L23.75 17.7209L24.7293 19.8073C24.7729 19.9002 24.8387 19.981 24.9209 20.0424C25.0031 20.1039 25.0992 20.1441 25.2006 20.1596L27.4532 20.5034L25.8027 22.1953ZM34.375 23.125H31.875C31.7092 23.125 31.5503 23.1908 31.4331 23.3081C31.3158 23.4253 31.25 23.5842 31.25 23.75V26.25C31.25 26.4158 31.3158 26.5747 31.4331 26.6919C31.5503 26.8092 31.7092 26.875 31.875 26.875H34.375C34.5408 26.875 34.6997 26.8092 34.8169 26.6919C34.9342 26.5747 35 26.4158 35 26.25V23.75C35 23.5842 34.9342 23.4253 34.8169 23.3081C34.6997 23.1908 34.5408 23.125 34.375 23.125ZM33.75 25.625H32.5V24.375H33.75V25.625ZM34.375 29.375H31.875C31.7092 29.375 31.5503 29.4408 31.4331 29.5581C31.3158 29.6753 31.25 29.8342 31.25 30V32.5C31.25 32.6658 31.3158 32.8247 31.4331 32.9419C31.5503 33.0592 31.7092 33.125 31.875 33.125H34.375C34.5408 33.125 34.6997 33.0592 34.8169 32.9419C34.9342 32.8247 35 32.6658 35 32.5V30C35 29.8342 34.9342 29.6753 34.8169 29.5581C34.6997 29.4408 34.5408 29.375 34.375 29.375ZM33.75 31.875H32.5V30.625H33.75V31.875ZM28.125 29.375H25.625C25.4592 29.375 25.3003 29.4408 25.1831 29.5581C25.0658 29.6753 25 29.8342 25 30V32.5C25 32.6658 25.0658 32.8247 25.1831 32.9419C25.3003 33.0592 25.4592 33.125 25.625 33.125H28.125C28.2908 33.125 28.4497 33.0592 28.5669 32.9419C28.6842 32.8247 28.75 32.6658 28.75 32.5V30C28.75 29.8342 28.6842 29.6753 28.5669 29.5581C28.4497 29.4408 28.2908 29.375 28.125 29.375ZM27.5 31.875H26.25V30.625H27.5V31.875Z" fill="url(#paint0_linear)"/>
<defs>
<linearGradient id="paint0_linear" x1="20" y1="38.75" x2="20" y2="1.25" gradientUnits="userSpaceOnUse">
<stop stop-color="#FEE140"/>
<stop offset="1" stop-color="#FA709A"/>
</linearGradient>
</defs>
</svg>
