<svg width="40" height="40" viewBox="0 0 40 40" fill="none" xmlns="http://www.w3.org/2000/svg">
<path d="M18.8109 12.3101L18.811 12.3103C19.0563 12.7337 19.5112 12.9969 20 12.9969C20.7565 12.9969 21.3719 12.3815 21.3719 11.625C21.3719 10.8685 20.7565 10.2531 20 10.2531C18.172 10.2531 16.6844 8.76552 16.6844 6.9375C16.6844 5.49739 17.6079 4.26846 18.895 3.81178L19.0281 3.76454V3.62329V2.17188C19.0281 1.63505 19.4632 1.2 20 1.2C20.5368 1.2 20.9719 1.63505 20.9719 2.17188V3.62543V3.76667L21.105 3.81391C21.8386 4.07429 22.4718 4.58803 22.8716 5.27894C23.1401 5.74368 22.9814 6.33815 22.5167 6.60691L22.5167 6.60693C22.0523 6.87571 21.4576 6.71697 21.1891 6.25241L21.189 6.25223C20.9437 5.82882 20.4888 5.56563 20 5.56563C19.2435 5.56563 18.6281 6.18099 18.6281 6.9375C18.6281 7.69401 19.2435 8.30937 20 8.30937C21.828 8.30937 23.3156 9.79698 23.3156 11.625C23.3156 13.0651 22.3921 14.294 21.105 14.7507L20.9719 14.798V14.9392V16.2188C20.9719 16.7556 20.5368 17.1907 20 17.1907C19.4632 17.1907 19.0281 16.7556 19.0281 16.2188V14.9371V14.7958L18.895 14.7486C18.1614 14.4882 17.5282 13.9745 17.1284 13.2836C16.8599 12.8188 17.0186 12.2243 17.4833 11.9556L17.4833 11.9556C17.9477 11.6868 18.5424 11.8455 18.8109 12.3101ZM1.89677 34.7874L1.89681 34.7874C2.99184 33.6921 4.42694 33.0906 5.9375 33.0906C7.44821 33.0906 8.87156 33.695 9.947 34.7953L9.94703 34.7953C11.0115 35.8839 11.5969 37.3158 11.5969 38.8281C11.5969 39.3649 11.1618 39.8 10.625 39.8H1.17188C0.635054 39.8 0.2 39.3649 0.2 38.8281C0.2 37.3176 0.801447 35.8825 1.89677 34.7874ZM28.0031 36.4844H28.2031H28.4031C28.4031 34.972 28.9885 33.5402 30.053 32.4515L30.053 32.4515C31.1284 31.3513 32.5518 30.7469 34.0625 30.7469C35.5731 30.7469 37.0082 31.3483 38.1032 32.4434C39.1986 33.5387 39.8 34.9735 39.8 36.4844V38.8281C39.8 39.3649 39.3649 39.8 38.8281 39.8H29.375C28.8382 39.8 28.4031 39.3649 28.4031 38.8281H28.2031H28.0031C28.0031 39.3649 27.5681 39.8 27.0312 39.8H12.9688C12.4319 39.8 11.9969 39.3649 11.9969 38.8281V36.4844C11.9969 32.0267 15.5889 28.4031 20 28.4031C24.4111 28.4031 28.0031 32.0267 28.0031 36.4844ZM2.3596 37.5889L2.26396 37.8563H2.54791H9.25323H9.53515L9.442 37.5902C8.92874 36.1239 7.53612 35.0344 5.9375 35.0344C4.30809 35.0344 2.88468 36.121 2.3596 37.5889ZM25.8594 37.8563H26.0594V37.6562V36.4844C26.0594 33.1025 23.3438 30.3469 20 30.3469C16.6562 30.3469 13.9406 33.1025 13.9406 36.4844V37.6562V37.8563H14.1406H25.8594ZM37.6562 37.8563H37.8563V37.6562V36.4844C37.8563 34.426 36.1209 32.6906 34.0625 32.6906C32.0421 32.6906 30.3469 34.4302 30.3469 36.4844V37.6562V37.8563H30.5469H37.6562ZM20 19.0281C22.4744 19.0281 24.4875 21.0412 24.4875 23.5156C24.4875 25.99 22.4744 28.0031 20 28.0031C17.5256 28.0031 15.5125 25.99 15.5125 23.5156C15.5125 21.0412 17.5256 19.0281 20 19.0281ZM17.4562 23.5156C17.4562 24.9185 18.5971 26.0594 20 26.0594C21.4029 26.0594 22.5438 24.9185 22.5438 23.5156C22.5438 22.1127 21.4029 20.9719 20 20.9719C18.5971 20.9719 17.4562 22.1127 17.4562 23.5156ZM34.0625 21.3719C36.5369 21.3719 38.55 23.385 38.55 25.8594C38.55 28.3338 36.5369 30.3469 34.0625 30.3469C31.5881 30.3469 29.575 28.3338 29.575 25.8594C29.575 23.385 31.5881 21.3719 34.0625 21.3719ZM31.5187 25.8594C31.5187 27.2623 32.6596 28.4031 34.0625 28.4031C35.4654 28.4031 36.6063 27.2623 36.6063 25.8594C36.6063 24.4565 35.4654 23.3156 34.0625 23.3156C32.6596 23.3156 31.5187 24.4565 31.5187 25.8594ZM5.9375 23.7156C8.41188 23.7156 10.425 25.7287 10.425 28.2031C10.425 30.6775 8.41188 32.6906 5.9375 32.6906C3.46312 32.6906 1.45 30.6775 1.45 28.2031C1.45 25.7287 3.46312 23.7156 5.9375 23.7156ZM3.39375 28.2031C3.39375 29.606 4.53462 30.7469 5.9375 30.7469C7.34038 30.7469 8.48125 29.606 8.48125 28.2031C8.48125 26.8002 7.34038 25.6594 5.9375 25.6594C4.53462 25.6594 3.39375 26.8002 3.39375 28.2031Z" fill="url(#paint0_linear)" stroke="white" stroke-width="0.4"/>
<defs>
<linearGradient id="paint0_linear" x1="25.8984" y1="28.2031" x2="25.8984" y2="40" gradientUnits="userSpaceOnUse">
<stop stop-color="#FA709A"/>
<stop offset="1" stop-color="#FEE140"/>
</linearGradient>
</defs>
</svg>
