<svg width="40" height="46" viewBox="0 0 40 46" fill="none" xmlns="http://www.w3.org/2000/svg">
<g clip-path="url(#clip0)">
<path d="M1.25862 10.0085H11.202V35.8293H1.25862C1.07043 35.8293 0.75 35.6186 0.75 35.137V27.8259C0.75 27.3443 1.07043 27.1336 1.25862 27.1336C3.43261 27.1336 5.03205 25.1445 5.03205 22.919C5.03205 20.6935 3.43266 18.7042 1.25862 18.7042C1.07043 18.7042 0.75 18.4935 0.75 18.0119V10.7009C0.75 10.2193 1.07043 10.0085 1.25862 10.0085ZM39.2502 18.0119C39.2502 18.4935 38.9298 18.7042 38.7416 18.7042C36.5675 18.7042 34.9681 20.6935 34.9681 22.919C34.9681 25.1445 36.5676 27.1337 38.7416 27.1337C38.9298 27.1337 39.2502 27.3444 39.2502 27.826V35.1371C39.2502 35.6187 38.9298 35.8294 38.7416 35.8294H15.2194V10.0085H38.7416C38.9298 10.0085 39.2502 10.2193 39.2502 10.7009V18.0119Z" stroke="url(#paint0_linear)" stroke-width="1.5"/>
</g>
<defs>
<linearGradient id="paint0_linear" x1="20.0001" y1="9.25854" x2="20.0001" y2="36.5794" gradientUnits="userSpaceOnUse">
<stop stop-color="#FA709A"/>
<stop offset="1" stop-color="#FEE140"/>
</linearGradient>
<clipPath id="clip0">
<rect width="40" height="45.8378" fill="white"/>
</clipPath>
</defs>
</svg>
