<svg width="24" height="24" viewBox="0 0 24 24" fill="none" xmlns="http://www.w3.org/2000/svg">
<path d="M23.8475 11.5331C23.6331 11.2398 18.5245 4.35156 11.9999 4.35156C5.47529 4.35156 0.366469 11.2398 0.152297 11.5328C-0.0507657 11.8111 -0.0507657 12.1885 0.152297 12.4667C0.366469 12.76 5.47529 19.6483 11.9999 19.6483C18.5245 19.6483 23.6331 12.76 23.8475 12.467C24.0508 12.1888 24.0508 11.8111 23.8475 11.5331ZM11.9999 18.0659C7.19383 18.0659 3.03127 13.494 1.79907 11.9994C3.02968 10.5034 7.18351 5.93397 11.9999 5.93397C16.8057 5.93397 20.968 10.505 22.2007 12.0005C20.9701 13.4963 16.8163 18.0659 11.9999 18.0659Z" fill="#F7F7F7"/>
<path d="M11.9998 7.25293C9.38224 7.25293 7.25256 9.38261 7.25256 12.0002C7.25256 14.6178 9.38224 16.7475 11.9998 16.7475C14.6174 16.7475 16.7471 14.6178 16.7471 12.0002C16.7471 9.38261 14.6174 7.25293 11.9998 7.25293ZM11.9998 15.165C10.2547 15.165 8.83502 13.7453 8.83502 12.0002C8.83502 10.2551 10.2547 8.83539 11.9998 8.83539C13.7449 8.83539 15.1646 10.2551 15.1646 12.0002C15.1646 13.7453 13.745 15.165 11.9998 15.165Z" fill="#F7F7F7"/>
</svg>
